<svg width="430" height="84" viewBox="0 0 430 84" style="fill:#ff8383;" xmlns="http://www.w3.org/2000/svg">
<line x1="373.158" y1="32.3997" x2="373.158" y2="51.4715" stroke="#797979" stroke-width="8" stroke-linecap="round"/>
<line x1="268.119" y1="32.3997" x2="268.119" y2="51.4715" stroke="#797979" stroke-width="8" stroke-linecap="round"/>
<line x1="281.113" y1="23.7366" x2="281.113" y2="60.1343" stroke="#797979" stroke-width="8" stroke-linecap="round"/>
<line x1="294.108" y1="18.3225" x2="294.108" y2="65.549" stroke="#797979" stroke-width="8" stroke-linecap="round"/>
<line x1="307.102" y1="4.24512" x2="307.102" y2="79.6263" stroke="#797979" stroke-width="8" stroke-linecap="round"/>
<line x1="320.097" y1="11.8252" x2="320.097" y2="73.129" stroke="#797979" stroke-width="8" stroke-linecap="round"/>
<line x1="254.583" y1="22.6477" x2="254.583" y2="62.3064" stroke="#797979" stroke-width="8" stroke-linecap="round"/>
<line x1="333.091" y1="23.7366" x2="333.091" y2="70.9631" stroke="#797979" stroke-width="8" stroke-linecap="round"/>
<line x1="202.064" y1="11.8252" x2="202.064" y2="73.129" stroke="#797979" stroke-width="8" stroke-linecap="round"/>
<line x1="347.169" y1="4.24512" x2="347.169" y2="79.6263" stroke="#797979" stroke-width="8" stroke-linecap="round"/>
<line x1="215.058" y1="6.41113" x2="215.058" y2="73.1293" stroke="#797979" stroke-width="8" stroke-linecap="round"/>
<line x1="360.164" y1="18.3225" x2="360.164" y2="65.549" stroke="#797979" stroke-width="8" stroke-linecap="round"/>
<line x1="228.052" y1="29.1511" x2="228.052" y2="55.803" stroke="#797979" stroke-width="8" stroke-linecap="round"/>
<line x1="4.98096" y1="32.3997" x2="4.98096" y2="51.4715" stroke="#797979" stroke-width="8" stroke-linecap="round"/>
<line x1="147.92" y1="35.6487" x2="147.92" y2="49.3061" stroke="#797979" stroke-width="8" stroke-linecap="round"/>
<line x1="17.9751" y1="23.7366" x2="17.9751" y2="60.1343" stroke="#797979" stroke-width="8" stroke-linecap="round"/>
<line x1="30.9697" y1="18.3228" x2="30.9697" y2="65.5492" stroke="#797979" stroke-width="8" stroke-linecap="round"/>
<line x1="163.08" y1="29.1511" x2="163.08" y2="54.7202" stroke="#797979" stroke-width="8" stroke-linecap="round"/>
<line x1="43.9639" y1="4.24512" x2="43.9639" y2="79.6263" stroke="#797979" stroke-width="8" stroke-linecap="round"/>
<line x1="176.075" y1="4.24512" x2="176.075" y2="79.6263" stroke="#797979" stroke-width="8" stroke-linecap="round"/>
<line x1="56.9585" y1="11.8252" x2="56.9585" y2="73.129" stroke="#797979" stroke-width="8" stroke-linecap="round"/>
<line x1="189.069" y1="18.3228" x2="189.069" y2="65.5492" stroke="#797979" stroke-width="8" stroke-linecap="round"/>
<line x1="69.9541" y1="23.7366" x2="69.9541" y2="70.9631" stroke="#797979" stroke-width="8" stroke-linecap="round"/>
<line x1="84.0312" y1="4.24512" x2="84.0312" y2="79.6263" stroke="#797979" stroke-width="8" stroke-linecap="round"/>
<line x1="97.0254" y1="18.3228" x2="97.0254" y2="65.5492" stroke="#797979" stroke-width="8" stroke-linecap="round"/>
<line x1="110.02" y1="4.24512" x2="110.02" y2="79.6263" stroke="#797979" stroke-width="8" stroke-linecap="round"/>
<line x1="123.014" y1="29.1511" x2="123.014" y2="54.7202" stroke="#797979" stroke-width="8" stroke-linecap="round"/>
<line x1="134.926" y1="24.8201" x2="134.926" y2="59.0521" stroke="#797979" stroke-width="8" stroke-linecap="round"/>
<line x1="241.047" y1="26.9851" x2="241.047" y2="61.2171" stroke="#797979" stroke-width="8" stroke-linecap="round"/>
<line x1="385.926" y1="51.4714" x2="385.926" y2="32.3996" stroke="#797979" stroke-width="8" stroke-linecap="round"/>
<line x1="425.993" y1="65.1345" x2="425.993" y2="17.908" stroke="#797979" stroke-width="8" stroke-linecap="round"/>
<line x1="411.916" y1="79.626" x2="411.916" y2="4.2448" stroke="#797979" stroke-width="8" stroke-linecap="round"/>
<line x1="398.921" y1="65.5488" x2="398.921" y2="18.3223" stroke="#797979" stroke-width="8" stroke-linecap="round"/>
</svg>
