<svg width="26" height="26" viewBox="0 0 26 26" fill="none" xmlns="http://www.w3.org/2000/svg">
<path d="M12.9998 23.4411H12.9846C10.1864 23.3891 2.1123 16.0939 2.1123 9.18443C2.1123 5.86509 4.84772 2.95093 7.96555 2.95093C10.4464 2.95093 12.1147 4.66259 12.9987 5.90843C13.8806 4.66476 15.5489 2.95093 18.0308 2.95093C21.1508 2.95093 23.8851 5.86509 23.8851 9.18551C23.8851 16.0928 15.81 23.388 13.0117 23.4389H12.9998V23.4411ZM7.96664 4.57701C5.71331 4.57701 3.73839 6.73068 3.73839 9.18659C3.73839 15.4049 11.3586 21.7489 13.0009 21.8161C14.6454 21.7489 22.2634 15.406 22.2634 9.18659C22.2634 6.73068 20.2885 4.57701 18.0351 4.57701C15.2965 4.57701 13.7668 7.75768 13.7538 7.78909C13.5046 8.39793 12.5015 8.39793 12.2512 7.78909C12.2361 7.75659 10.7075 4.57701 7.96772 4.57701H7.96664Z" fill="#828282"/>
</svg>
