<svg width="252" height="170" viewBox="0 0 252 170" fill="none" xmlns="http://www.w3.org/2000/svg">
<path fill-rule="evenodd" clip-rule="evenodd" d="M138.989 58.4076C138.989 57.3031 139.885 56.4076 140.989 56.4076L146.903 56.4076C148.008 56.4076 148.903 57.3031 148.903 58.4076L148.903 59.8154C148.903 60.92 148.008 61.8154 146.903 61.8154L141.693 61.8154L141.693 68.3651C143.284 69.5271 144.547 71.1547 145.246 73.1382C147.124 78.4612 144.235 84.3325 138.794 86.252C133.353 88.1715 127.419 85.4124 125.542 80.0894C123.664 74.7664 126.553 68.8951 131.994 66.9756C134.357 66.142 136.813 66.1908 138.989 66.9488L138.989 59.8154L138.989 59.1115L138.989 58.4076Z" fill="#FF8383"/>
<path d="M140.989 56.4076L140.989 57.0742L140.989 57.0742L140.989 56.4076ZM138.989 58.4076L138.323 58.4076L138.323 58.4076L138.989 58.4076ZM146.903 56.4076L146.903 55.7411L146.903 56.4076ZM148.903 58.4076L149.57 58.4076L149.57 58.4076L148.903 58.4076ZM148.903 59.8154L149.57 59.8154L148.903 59.8154ZM146.903 61.8154L146.903 62.482L146.903 61.8154ZM141.693 61.8154L141.693 61.1489L141.026 61.1489L141.026 61.8154L141.693 61.8154ZM141.693 68.3651L141.026 68.3651L141.026 68.7036L141.3 68.9033L141.693 68.3651ZM138.989 66.9488L138.77 67.5782L139.656 67.8868L139.656 66.9488L138.989 66.9488ZM138.989 59.8154L138.323 59.8154L138.323 59.8154L138.989 59.8154ZM138.989 59.1115L139.656 59.1115L139.656 59.1115L138.989 59.1115ZM140.989 55.7411C139.516 55.7411 138.323 56.9349 138.323 58.4076L139.656 58.4076C139.656 57.6712 140.253 57.0742 140.989 57.0742L140.989 55.7411ZM146.903 55.7411L140.989 55.7411L140.989 57.0742L146.903 57.0742L146.903 55.7411ZM149.57 58.4076C149.57 56.9349 148.376 55.7411 146.903 55.7411L146.903 57.0742C147.64 57.0742 148.237 57.6712 148.237 58.4076L149.57 58.4076ZM149.57 59.8154L149.57 58.4076L148.237 58.4076L148.237 59.8154L149.57 59.8154ZM146.903 62.482C148.376 62.482 149.57 61.2881 149.57 59.8154L148.237 59.8154C148.237 60.5519 147.64 61.1489 146.903 61.1489L146.903 62.482ZM141.693 62.482L146.903 62.482L146.903 61.1489L141.693 61.1489L141.693 62.482ZM142.36 68.3651L142.36 61.8154L141.026 61.8154L141.026 68.3651L142.36 68.3651ZM145.875 72.9164C145.129 70.8013 143.781 69.0652 142.086 67.8268L141.3 68.9033C142.786 69.9891 143.964 71.5081 144.618 73.3599L145.875 72.9164ZM139.016 86.8806C144.791 84.8432 147.88 78.5996 145.875 72.9164L144.618 73.3599C146.368 78.3228 143.68 83.8217 138.572 85.6234L139.016 86.8806ZM124.913 80.3112C126.918 85.9943 133.24 88.9179 139.016 86.8806L138.572 85.6234C133.465 87.4251 127.921 84.8306 126.17 79.8677L124.913 80.3112ZM131.772 66.347C125.997 68.3844 122.908 74.628 124.913 80.3112L126.17 79.8677C124.419 74.9048 127.108 69.4059 132.216 67.6042L131.772 66.347ZM139.208 66.3193C136.893 65.5129 134.282 65.4617 131.772 66.347L132.216 67.6042C134.432 66.8222 136.733 66.8686 138.77 67.5782L139.208 66.3193ZM138.323 59.8154L138.323 66.9488L139.656 66.9488L139.656 59.8154L138.323 59.8154ZM138.323 59.1115L138.323 59.8154L139.656 59.8154L139.656 59.1115L138.323 59.1115ZM138.323 58.4076L138.323 59.1115L139.656 59.1115L139.656 58.4076L138.323 58.4076Z" fill="white"/>
<path d="M142.344 68.8878C145.75 67.6049 148.258 67.3073 148.889 68.3127C150.005 70.0868 144.86 75.2344 137.401 79.8164C129.942 84.3984 123.003 86.6838 121.887 84.9097C121.256 83.9043 122.634 81.8194 125.311 79.3578" stroke="white" stroke-width="1.3331" stroke-miterlimit="10"/>
<path d="M68.6899 86.3937C67.9299 86.3937 67.5499 86.1737 67.5499 85.7337L67.5499 66.2337C67.5499 65.9137 67.6099 65.6837 67.7299 65.5437C67.8699 65.4037 68.0799 65.3337 68.3599 65.3337L73.3099 65.3337C74.7299 65.3337 75.9899 65.7537 77.0899 66.5937C78.2099 67.4337 78.7699 68.9737 78.7699 71.2137C78.7699 72.8737 78.4499 74.1637 77.8099 75.0837C77.1899 76.0037 76.4799 76.6237 75.6799 76.9437C74.8999 77.2437 74.1899 77.3937 73.5499 77.3937L70.2499 77.3937L70.2499 85.7337C70.2499 86.1737 69.8699 86.3937 69.1099 86.3937L68.6899 86.3937ZM73.3999 75.1137C74.0599 75.1137 74.6599 74.8237 75.1999 74.2437C75.7399 73.6637 76.0099 72.6537 76.0099 71.2137C76.0099 69.8737 75.7299 68.9437 75.1699 68.4237C74.6299 67.8837 73.9699 67.6137 73.1899 67.6137L70.2499 67.6137L70.2499 75.1137L73.3999 75.1137ZM83.0126 86.3337C82.7326 86.3337 82.5226 86.2637 82.3826 86.1237C82.2626 85.9837 82.2026 85.7537 82.2026 85.4337L82.2026 66.2337C82.2026 65.9137 82.2626 65.6837 82.3826 65.5437C82.5226 65.4037 82.7326 65.3337 83.0126 65.3337L91.6526 65.3337C92.0326 65.3337 92.2226 65.6337 92.2226 66.2337L92.2226 66.7137C92.2226 67.3137 92.0326 67.6137 91.6526 67.6137L84.9026 67.6137L84.9026 74.4537L90.9626 74.4537C91.3426 74.4537 91.5326 74.7537 91.5326 75.3537L91.5326 75.8337C91.5326 76.4337 91.3426 76.7337 90.9626 76.7337L84.9026 76.7337L84.9026 84.0537L91.6526 84.0537C91.8526 84.0537 91.9926 84.1237 92.0726 84.2637C92.1726 84.4037 92.2226 84.6337 92.2226 84.9537L92.2226 85.4337C92.2226 85.7537 92.1726 85.9837 92.0726 86.1237C91.9926 86.2637 91.8526 86.3337 91.6526 86.3337L83.0126 86.3337ZM96.9935 86.3937C96.2335 86.3937 95.8535 86.1737 95.8535 85.7337L95.8535 66.2337C95.8535 65.9137 95.9135 65.6837 96.0335 65.5437C96.1735 65.4037 96.3835 65.3337 96.6635 65.3337L101.104 65.3337C103.084 65.3337 104.554 65.7537 105.514 66.5937C106.474 67.4337 106.954 68.7837 106.954 70.6437C106.954 71.8837 106.704 72.9337 106.204 73.7937C105.724 74.6337 105.054 75.2737 104.194 75.7137L104.194 75.8337C104.594 76.0337 104.944 76.4237 105.244 77.0037C105.544 77.5837 105.884 78.4437 106.264 79.5837L108.154 85.4937C108.214 85.6737 108.244 85.8137 108.244 85.9137C108.244 86.2337 107.854 86.3937 107.074 86.3937L106.564 86.3937C106.284 86.3937 106.034 86.3537 105.814 86.2737C105.614 86.1737 105.494 86.0537 105.454 85.9137L103.654 80.0337C103.294 78.8937 102.884 78.1237 102.424 77.7237C101.984 77.3037 101.324 77.0937 100.444 77.0937L98.5535 77.0937L98.5535 85.7337C98.5535 86.1737 98.1735 86.3937 97.4135 86.3937L96.9935 86.3937ZM101.554 74.8137C102.274 74.8137 102.884 74.4537 103.384 73.7337C103.904 72.9937 104.164 72.1237 104.164 71.1237C104.164 69.9437 103.914 69.0637 103.414 68.4837C102.934 67.9037 102.254 67.6137 101.374 67.6137L98.5235 67.6137L98.5235 74.8137L101.554 74.8137ZM112.404 86.3937C111.644 86.3937 111.264 86.1737 111.264 85.7337L111.264 66.2337C111.264 65.9137 111.324 65.6837 111.444 65.5437C111.584 65.4037 111.794 65.3337 112.074 65.3337L119.874 65.3337C120.254 65.3337 120.444 65.6337 120.444 66.2337L120.444 66.7137C120.444 67.3137 120.254 67.6137 119.874 67.6137L113.964 67.6137L113.964 75.0537L119.364 75.0537C119.744 75.0537 119.934 75.3537 119.934 75.9537L119.934 76.4337C119.934 77.0337 119.744 77.3337 119.364 77.3337L113.964 77.3337L113.964 85.7337C113.964 86.1737 113.584 86.3937 112.824 86.3937L112.404 86.3937ZM153.771 86.3937C153.011 86.3937 152.631 86.1737 152.631 85.7337L152.631 66.2337C152.631 65.9137 152.691 65.6837 152.811 65.5437C152.951 65.4037 153.161 65.3337 153.441 65.3337L157.881 65.3337C159.861 65.3337 161.331 65.7537 162.291 66.5937C163.251 67.4337 163.731 68.7837 163.731 70.6437C163.731 71.8837 163.481 72.9337 162.981 73.7937C162.501 74.6337 161.831 75.2737 160.971 75.7137L160.971 75.8337C161.371 76.0337 161.721 76.4237 162.021 77.0037C162.321 77.5837 162.661 78.4437 163.041 79.5837L164.931 85.4937C164.991 85.6737 165.021 85.8137 165.021 85.9137C165.021 86.2337 164.631 86.3937 163.851 86.3937L163.341 86.3937C163.061 86.3937 162.811 86.3537 162.591 86.2737C162.391 86.1737 162.271 86.0537 162.231 85.9137L160.431 80.0337C160.071 78.8937 159.661 78.1237 159.201 77.7237C158.761 77.3037 158.101 77.0937 157.221 77.0937L155.331 77.0937L155.331 85.7337C155.331 86.1737 154.951 86.3937 154.191 86.3937L153.771 86.3937ZM158.331 74.8137C159.051 74.8137 159.661 74.4537 160.161 73.7337C160.681 72.9937 160.941 72.1237 160.941 71.1237C160.941 69.9437 160.691 69.0637 160.191 68.4837C159.711 67.9037 159.031 67.6137 158.151 67.6137L155.301 67.6137L155.301 74.8137L158.331 74.8137ZM175.572 79.1637C175.252 79.1637 175.032 79.0337 174.912 78.7737L171.402 71.8737C171.122 71.3137 170.822 70.6237 170.502 69.8037L170.382 69.8637C170.482 70.6637 170.532 71.3737 170.532 71.9937L170.532 85.7337C170.532 86.1737 170.152 86.3937 169.392 86.3937L169.032 86.3937C168.272 86.3937 167.892 86.1737 167.892 85.7337L167.892 65.9337C167.892 65.4937 168.272 65.2737 169.032 65.2737L169.662 65.2737C170.242 65.2737 170.622 65.4537 170.802 65.8137L175.602 75.2037C175.822 75.6437 175.982 76.1237 176.082 76.6437C176.182 76.1237 176.342 75.6437 176.562 75.2037L181.362 65.8137C181.542 65.4537 181.922 65.2737 182.502 65.2737L183.132 65.2737C183.892 65.2737 184.272 65.4937 184.272 65.9337L184.272 85.7337C184.272 86.1737 183.892 86.3937 183.132 86.3937L182.772 86.3937C182.012 86.3937 181.632 86.1737 181.632 85.7337L181.632 71.9937C181.632 71.3737 181.682 70.6637 181.782 69.8637L181.662 69.8037C181.342 70.6237 181.042 71.3137 180.762 71.8737L177.252 78.7737C177.132 79.0337 176.912 79.1637 176.592 79.1637L175.572 79.1637Z" fill="white"/>
</svg>
