<svg width="68" height="68" viewBox="0 0 68 68" fill="none" xmlns="http://www.w3.org/2000/svg">
<path d="M54.5415 8.55103H13.4582C9.16 8.55103 5.6665 12.0474 5.6665 16.3484V51.7509C5.6665 56.0519 9.16 59.551 13.4582 59.551H54.5415C58.8397 59.551 62.3332 56.0519 62.3332 51.7509V16.3484C62.3332 12.0474 58.8397 8.55103 54.5415 8.55103ZM13.4582 12.801H54.5415C56.4965 12.801 58.0832 14.3877 58.0832 16.3427V18.3657L35.2748 33.5722C34.5013 34.0822 33.5012 34.0879 32.7248 33.5665L9.9165 18.3657V16.3427C9.9165 14.3877 11.5032 12.801 13.4582 12.801V12.801ZM54.5415 55.2954H13.4582C11.5032 55.2954 9.9165 53.7087 9.9165 51.7537V23.3467L30.4298 37.0317C31.515 37.757 32.7588 38.1197 33.9998 38.1197C35.2465 38.1197 36.4847 37.757 37.5698 37.0345L58.0832 23.3495V51.7452C58.0832 53.7002 56.4965 55.2869 54.5415 55.2869V55.2954Z" fill="black"/>
</svg>
