<svg width="26" height="17" viewBox="0 0 26 17" fill="none" xmlns="http://www.w3.org/2000/svg">
<path d="M25.7609 12.0902C25.4443 11.7892 24.9293 11.7892 24.6116 12.0902L22.2045 14.3705V3.85236C22.2045 1.7282 20.3796 0.000513795 18.1384 0.000513795H11.7954C11.3465 0.000513795 10.9822 0.345639 10.9822 0.770883C10.9822 1.19613 11.3465 1.54125 11.7954 1.54125H18.1384C19.4829 1.54125 20.578 2.57868 20.578 3.85236V14.3705L18.1709 12.0902C17.8532 11.7892 17.3382 11.7892 17.0216 12.0902C16.705 12.3911 16.7028 12.879 17.0216 13.179L20.8166 16.774C20.9738 16.925 21.182 17 21.3913 17C21.6005 17 21.8065 16.926 21.9659 16.774L25.7609 13.179C26.0797 12.879 26.0797 12.3911 25.7609 12.0902ZM14.2025 15.4593H7.85942C6.51491 15.4593 5.41978 14.4218 5.41978 13.1482V2.63004L7.82689 4.91034C7.98736 5.06133 8.19555 5.13631 8.40373 5.13631C8.61191 5.13631 8.82009 5.06133 8.9784 4.91034C9.29609 4.60938 9.29609 4.12148 8.9784 3.82155L5.18341 0.226489C4.86572 -0.0754962 4.35068 -0.0754962 4.03407 0.226489L0.239084 3.82155C-0.0796947 4.12148 -0.0796947 4.60938 0.239084 4.91034C0.557863 5.21129 1.07073 5.21129 1.38842 4.91034L3.79553 2.63004V13.1482C3.79553 15.2723 5.62038 17 7.86159 17H14.2046C14.6535 17 15.0178 16.6549 15.0178 16.2296C15.0178 15.8044 14.6524 15.4593 14.2046 15.4593H14.2025Z" fill="#828282"/>
</svg>
