<svg width="26" height="26" viewBox="0 0 26 26" fill="none" xmlns="http://www.w3.org/2000/svg">
<path d="M18.9906 8.09272L13.5739 2.67605C13.2565 2.35863 12.7419 2.35863 12.4256 2.67605L7.00889 8.09272C6.69039 8.41013 6.69039 8.92472 7.00889 9.24105C7.32739 9.55738 7.83981 9.55955 8.15723 9.24105L12.1872 5.21105V16.2502C12.1872 16.6987 12.5512 17.0627 12.9997 17.0627C13.4482 17.0627 13.8122 16.6987 13.8122 16.2502V5.21105L17.8422 9.24105C18.0004 9.4003 18.2084 9.47938 18.4164 9.47938C18.6244 9.47938 18.8324 9.40138 18.9906 9.24105C19.308 8.92363 19.308 8.41013 18.9906 8.09272V8.09272Z" fill="#828282"/>
<path d="M21.3502 23.773H4.6495C3.28017 23.773 2.1665 22.6593 2.1665 21.29V15.167C2.1665 14.7185 2.5305 14.3545 2.979 14.3545C3.4275 14.3545 3.7915 14.7185 3.7915 15.167V21.29C3.7915 21.7634 4.17609 22.148 4.6495 22.148H21.3502C21.8236 22.148 22.2082 21.7634 22.2082 21.29V15.167C22.2082 14.7185 22.5722 14.3545 23.0207 14.3545C23.4692 14.3545 23.8332 14.7185 23.8332 15.167V21.29C23.8332 22.6593 22.7195 23.773 21.3502 23.773V23.773Z" fill="#828282"/>
</svg>
